####################################################
# Wavefront .obj format modified by Milos Seleceni #
####################################################

v  25.0000 -4.0000 -0.6667
v  23.4923 4.5505 -0.6667
v  23.4923 4.5505 2.3333
v  25.0000 -4.0000 2.3333
v  19.1511 12.0697 -0.6667
v  19.1511 12.0697 2.3333
v  12.5000 17.6506 -0.6667
v  12.5000 17.6506 2.3333
v  4.3412 20.6202 -0.6667
v  4.3412 20.6202 2.3333
v  -4.3412 20.6202 -0.6667
v  -4.3412 20.6202 2.3333
v  -4.3412 20.6202 -0.6667
v  -12.5000 17.6506 -0.6667
v  -12.5000 17.6506 2.3333
v  -4.3412 20.6202 2.3333
v  -19.1511 12.0697 -0.6667
v  -19.1511 12.0697 2.3333
v  -23.4923 4.5505 -0.6667
v  -23.4923 4.5505 2.3333
v  -25.0000 -4.0000 -0.6667
v  -25.0000 -4.0000 2.3333
v  -23.4923 -12.5505 -0.6667
v  -23.4923 -12.5505 2.3333
v  -19.1511 -20.0697 -0.6667
v  -19.1511 -20.0697 2.3333
v  -12.5000 -25.6506 -0.6667
v  -12.5000 -25.6506 2.3333
v  -4.3412 -28.6202 -0.6667
v  -4.3412 -28.6202 2.3333
v  4.3412 -28.6202 -0.6667
v  4.3412 -28.6202 2.3333
v  12.5000 -25.6506 -0.6667
v  12.5000 -25.6506 2.3333
v  19.1511 -20.0697 -0.6667
v  19.1511 -20.0697 2.3333
v  23.4923 -12.5505 -0.6667
v  23.4923 -12.5505 2.3333
v  25.0000 -4.0000 2.3333
v  23.4923 4.5505 2.3333
v  20.9006 3.6072 2.3333
v  22.2419 -4.0000 2.3333
v  19.1511 12.0697 2.3333
v  17.0383 10.2968 2.3333
v  12.5000 17.6506 2.3333
v  11.1210 15.2621 2.3333
v  4.3412 20.6202 2.3333
v  3.8623 17.9040 2.3333
v  -4.3412 20.6202 2.3333
v  -3.8623 17.9040 2.3333
v  -4.3412 20.6202 2.3333
v  -12.5000 17.6506 2.3333
v  -11.1210 15.2621 2.3333
v  -3.8623 17.9040 2.3333
v  -19.1511 12.0697 2.3333
v  -17.0383 10.2968 2.3333
v  -23.4923 4.5505 2.3333
v  -20.9006 3.6072 2.3333
v  -25.0000 -4.0000 2.3333
v  -22.2419 -4.0000 2.3333
v  -23.4923 -12.5505 2.3333
v  -20.9006 -11.6072 2.3333
v  -19.1511 -20.0697 2.3333
v  -17.0383 -18.2968 2.3333
v  -12.5000 -25.6506 2.3333
v  -11.1210 -23.2621 2.3333
v  -4.3412 -28.6202 2.3333
v  -3.8623 -25.9040 2.3333
v  4.3412 -28.6202 2.3333
v  3.8623 -25.9040 2.3333
v  12.5000 -25.6506 2.3333
v  11.1210 -23.2621 2.3333
v  19.1511 -20.0697 2.3333
v  17.0383 -18.2969 2.3333
v  23.4923 -12.5505 2.3333
v  20.9006 -11.6072 2.3333
v  22.2419 -4.0000 2.3333
v  20.9006 3.6072 2.3333
v  20.9006 3.6072 0.8757
v  22.2419 -4.0000 0.8757
v  20.9006 3.6072 2.3333
v  17.0383 10.2968 2.3333
v  17.0383 10.2968 0.8757
v  20.9006 3.6072 0.8757
v  17.0383 10.2968 2.3333
v  11.1210 15.2621 2.3333
v  11.1210 15.2621 0.8757
v  17.0383 10.2968 0.8757
v  11.1210 15.2621 2.3333
v  3.8623 17.9040 2.3333
v  3.8623 17.9040 0.8757
v  11.1210 15.2621 0.8757
v  3.8623 17.9040 2.3333
v  -3.8623 17.9040 2.3333
v  -3.8623 17.9040 0.8757
v  3.8623 17.9040 0.8757
v  -3.8623 17.9040 2.3333
v  -11.1210 15.2621 2.3333
v  -11.1210 15.2621 0.8757
v  -3.8623 17.9040 0.8757
v  -11.1210 15.2621 2.3333
v  -17.0383 10.2968 2.3333
v  -17.0383 10.2968 0.8757
v  -11.1210 15.2621 0.8757
v  -17.0383 10.2968 2.3333
v  -20.9006 3.6072 2.3333
v  -20.9006 3.6072 0.8757
v  -17.0383 10.2968 0.8757
v  -20.9006 3.6072 2.3333
v  -22.2419 -4.0000 2.3333
v  -22.2419 -4.0000 0.8757
v  -20.9006 3.6072 0.8757
v  -22.2419 -4.0000 2.3333
v  -20.9006 -11.6072 2.3333
v  -20.9006 -11.6072 0.8757
v  -22.2419 -4.0000 0.8757
v  -20.9006 -11.6072 2.3333
v  -17.0383 -18.2968 2.3333
v  -17.0383 -18.2968 0.8757
v  -20.9006 -11.6072 0.8757
v  -17.0383 -18.2968 2.3333
v  -11.1210 -23.2621 2.3333
v  -11.1210 -23.2621 0.8757
v  -17.0383 -18.2968 0.8757
v  -11.1210 -23.2621 2.3333
v  -3.8623 -25.9040 2.3333
v  -3.8623 -25.9040 0.8757
v  -11.1210 -23.2621 0.8757
v  -3.8623 -25.9040 2.3333
v  3.8623 -25.9040 2.3333
v  3.8623 -25.9040 0.8757
v  -3.8623 -25.9040 0.8757
v  3.8623 -25.9040 2.3333
v  11.1210 -23.2621 2.3333
v  11.1210 -23.2621 0.8757
v  3.8623 -25.9040 0.8757
v  11.1210 -23.2621 2.3333
v  17.0383 -18.2969 2.3333
v  17.0383 -18.2969 0.8757
v  11.1210 -23.2621 0.8757
v  17.0383 -18.2969 2.3333
v  20.9006 -11.6072 2.3333
v  20.9006 -11.6072 0.8757
v  17.0383 -18.2969 0.8757
v  20.9006 -11.6072 2.3333
v  22.2419 -4.0000 2.3333
v  22.2419 -4.0000 0.8757
v  20.9006 -11.6072 0.8757
v  23.4923 -12.5505 -0.6667
v  19.1511 -20.0697 -0.6667
v  -0.0000 -4.0000 -0.6667
v  12.5000 -25.6506 -0.6667
v  4.3412 -28.6202 -0.6667
v  -4.3412 -28.6202 -0.6667
v  -12.5000 -25.6506 -0.6667
v  -19.1511 -20.0697 -0.6667
v  -23.4923 -12.5505 -0.6667
v  -25.0000 -4.0000 -0.6667
v  -23.4923 4.5505 -0.6667
v  -19.1511 12.0697 -0.6667
v  -12.5000 17.6506 -0.6667
v  -4.3412 20.6202 -0.6667
v  -4.3412 20.6202 -0.6667
v  4.3412 20.6202 -0.6667
v  -0.0000 -4.0000 -0.6667
v  4.3412 20.6202 -0.6667
v  12.5000 17.6506 -0.6667
v  19.1511 12.0697 -0.6667
v  23.4923 4.5505 -0.6667
v  25.0000 -4.0000 -0.6667
v  22.2419 -4.0000 0.8757
v  20.9006 3.6072 0.8757
v  -0.0000 -4.0000 0.8757
v  17.0383 10.2968 0.8757
v  11.1210 15.2621 0.8757
v  3.8623 17.9040 0.8757
v  3.8623 17.9040 0.8757
v  -3.8623 17.9040 0.8757
v  -0.0000 -4.0000 0.8757
v  -3.8623 17.9040 0.8757
v  -11.1210 15.2621 0.8757
v  -17.0383 10.2968 0.8757
v  -20.9006 3.6072 0.8757
v  -22.2419 -4.0000 0.8757
v  -20.9006 -11.6072 0.8757
v  -17.0383 -18.2968 0.8757
v  -11.1210 -23.2621 0.8757
v  -3.8623 -25.9040 0.8757
v  3.8623 -25.9040 0.8757
v  11.1210 -23.2621 0.8757
v  17.0383 -18.2969 0.8757
v  20.9006 -11.6072 0.8757
# 192 vertices

vn 1.0000 -0.0000 -0.0000
vn 0.9397 0.3420 0.0000
vn 0.9397 0.3420 0.0000
vn 1.0000 -0.0000 -0.0000
vn 0.7660 0.6428 0.0000
vn 0.7660 0.6428 0.0000
vn 0.5000 0.8660 0.0000
vn 0.5000 0.8660 0.0000
vn 0.1736 0.9848 0.0000
vn 0.1736 0.9848 0.0000
vn -0.1736 0.9848 0.0000
vn -0.1736 0.9848 0.0000
vn -0.1736 0.9848 0.0000
vn -0.5000 0.8660 0.0000
vn -0.5000 0.8660 0.0000
vn -0.1736 0.9848 0.0000
vn -0.7660 0.6428 0.0000
vn -0.7660 0.6428 0.0000
vn -0.9397 0.3420 0.0000
vn -0.9397 0.3420 0.0000
vn -1.0000 0.0000 0.0000
vn -1.0000 0.0000 0.0000
vn -0.9397 -0.3420 -0.0000
vn -0.9397 -0.3420 -0.0000
vn -0.7660 -0.6428 -0.0000
vn -0.7660 -0.6428 -0.0000
vn -0.5000 -0.8660 -0.0000
vn -0.5000 -0.8660 -0.0000
vn -0.1736 -0.9848 -0.0000
vn -0.1736 -0.9848 -0.0000
vn 0.1736 -0.9848 -0.0000
vn 0.1736 -0.9848 -0.0000
vn 0.5000 -0.8660 -0.0000
vn 0.5000 -0.8660 -0.0000
vn 0.7660 -0.6428 -0.0000
vn 0.7660 -0.6428 -0.0000
vn 0.9397 -0.3420 -0.0000
vn 0.9397 -0.3420 -0.0000
vn 0.0000 -0.0000 1.0000
vn 0.0000 -0.0000 1.0000
vn 0.0000 -0.0000 1.0000
vn 0.0000 -0.0000 1.0000
vn 0.0000 -0.0000 1.0000
vn 0.0000 -0.0000 1.0000
vn 0.0000 -0.0000 1.0000
vn 0.0000 -0.0000 1.0000
vn 0.0000 -0.0000 1.0000
vn 0.0000 -0.0000 1.0000
vn 0.0000 -0.0000 1.0000
vn 0.0000 -0.0000 1.0000
vn 0.0000 -0.0000 1.0000
vn 0.0000 -0.0000 1.0000
vn 0.0000 -0.0000 1.0000
vn 0.0000 -0.0000 1.0000
vn 0.0000 -0.0000 1.0000
vn 0.0000 -0.0000 1.0000
vn 0.0000 -0.0000 1.0000
vn 0.0000 -0.0000 1.0000
vn 0.0000 -0.0000 1.0000
vn 0.0000 -0.0000 1.0000
vn 0.0000 -0.0000 1.0000
vn 0.0000 -0.0000 1.0000
vn 0.0000 -0.0000 1.0000
vn 0.0000 -0.0000 1.0000
vn 0.0000 -0.0000 1.0000
vn 0.0000 -0.0000 1.0000
vn 0.0000 -0.0000 1.0000
vn 0.0000 -0.0000 1.0000
vn 0.0000 -0.0000 1.0000
vn 0.0000 -0.0000 1.0000
vn 0.0000 -0.0000 1.0000
vn 0.0000 -0.0000 1.0000
vn 0.0000 -0.0000 1.0000
vn 0.0000 -0.0000 1.0000
vn 0.0000 -0.0000 1.0000
vn 0.0000 -0.0000 1.0000
vn -0.9848 -0.1736 -0.0000
vn -0.9848 -0.1736 -0.0000
vn -0.9848 -0.1736 -0.0000
vn -0.9848 -0.1736 -0.0000
vn -0.8660 -0.5000 -0.0000
vn -0.8660 -0.5000 -0.0000
vn -0.8660 -0.5000 -0.0000
vn -0.8660 -0.5000 -0.0000
vn -0.6428 -0.7660 -0.0000
vn -0.6428 -0.7660 -0.0000
vn -0.6428 -0.7660 -0.0000
vn -0.6428 -0.7660 -0.0000
vn -0.3420 -0.9397 -0.0000
vn -0.3420 -0.9397 -0.0000
vn -0.3420 -0.9397 -0.0000
vn -0.3420 -0.9397 -0.0000
vn 0.0000 -1.0000 -0.0000
vn 0.0000 -1.0000 -0.0000
vn 0.0000 -1.0000 -0.0000
vn 0.0000 -1.0000 -0.0000
vn 0.3420 -0.9397 -0.0000
vn 0.3420 -0.9397 -0.0000
vn 0.3420 -0.9397 -0.0000
vn 0.3420 -0.9397 -0.0000
vn 0.6428 -0.7660 -0.0000
vn 0.6428 -0.7660 -0.0000
vn 0.6428 -0.7660 -0.0000
vn 0.6428 -0.7660 -0.0000
vn 0.8660 -0.5000 -0.0000
vn 0.8660 -0.5000 -0.0000
vn 0.8660 -0.5000 -0.0000
vn 0.8660 -0.5000 -0.0000
vn 0.9848 -0.1736 -0.0000
vn 0.9848 -0.1736 -0.0000
vn 0.9848 -0.1736 -0.0000
vn 0.9848 -0.1736 -0.0000
vn 0.9848 0.1736 0.0000
vn 0.9848 0.1736 0.0000
vn 0.9848 0.1736 0.0000
vn 0.9848 0.1736 0.0000
vn 0.8660 0.5000 0.0000
vn 0.8660 0.5000 0.0000
vn 0.8660 0.5000 0.0000
vn 0.8660 0.5000 0.0000
vn 0.6428 0.7660 0.0000
vn 0.6428 0.7660 0.0000
vn 0.6428 0.7660 0.0000
vn 0.6428 0.7660 0.0000
vn 0.3420 0.9397 0.0000
vn 0.3420 0.9397 0.0000
vn 0.3420 0.9397 0.0000
vn 0.3420 0.9397 0.0000
vn 0.0000 1.0000 0.0000
vn 0.0000 1.0000 0.0000
vn 0.0000 1.0000 0.0000
vn 0.0000 1.0000 0.0000
vn -0.3420 0.9397 0.0000
vn -0.3420 0.9397 0.0000
vn -0.3420 0.9397 0.0000
vn -0.3420 0.9397 0.0000
vn -0.6428 0.7660 0.0000
vn -0.6428 0.7660 0.0000
vn -0.6428 0.7660 0.0000
vn -0.6428 0.7660 0.0000
vn -0.8660 0.5000 0.0000
vn -0.8660 0.5000 0.0000
vn -0.8660 0.5000 0.0000
vn -0.8660 0.5000 0.0000
vn -0.9848 0.1736 0.0000
vn -0.9848 0.1736 0.0000
vn -0.9848 0.1736 0.0000
vn -0.9848 0.1736 0.0000
vn 0.0000 0.0000 -1.0000
vn 0.0000 0.0000 -1.0000
vn 0.0000 0.0000 -1.0000
vn 0.0000 0.0000 -1.0000
vn 0.0000 0.0000 -1.0000
vn 0.0000 0.0000 -1.0000
vn 0.0000 0.0000 -1.0000
vn 0.0000 0.0000 -1.0000
vn 0.0000 0.0000 -1.0000
vn 0.0000 0.0000 -1.0000
vn 0.0000 0.0000 -1.0000
vn 0.0000 0.0000 -1.0000
vn 0.0000 0.0000 -1.0000
vn 0.0000 0.0000 -1.0000
vn 0.0000 0.0000 -1.0000
vn 0.0000 0.0000 -1.0000
vn 0.0000 0.0000 -1.0000
vn 0.0000 0.0000 -1.0000
vn 0.0000 0.0000 -1.0000
vn 0.0000 0.0000 -1.0000
vn 0.0000 0.0000 -1.0000
vn 0.0000 0.0000 -1.0000
vn -0.0000 -0.0000 1.0000
vn -0.0000 -0.0000 1.0000
vn 0.0000 -0.0000 1.0000
vn -0.0000 -0.0000 1.0000
vn -0.0000 -0.0000 1.0000
vn -0.0000 -0.0000 1.0000
vn -0.0000 -0.0000 1.0000
vn 0.0000 -0.0000 1.0000
vn 0.0000 -0.0000 1.0000
vn 0.0000 -0.0000 1.0000
vn 0.0000 -0.0000 1.0000
vn 0.0000 -0.0000 1.0000
vn 0.0000 -0.0000 1.0000
vn 0.0000 -0.0000 1.0000
vn 0.0000 -0.0000 1.0000
vn 0.0000 -0.0000 1.0000
vn 0.0000 -0.0000 1.0000
vn 0.0000 -0.0000 1.0000
vn -0.0000 -0.0000 1.0000
vn -0.0000 -0.0000 1.0000
vn -0.0000 -0.0000 1.0000
vn -0.0000 -0.0000 1.0000
# 192 vertex normals

vt 0.7500 0.0005 0.9990
vt 0.8056 0.0005 0.9990
vt 0.8056 0.9995 0.9990
vt 0.7500 0.9995 0.9990
vt 0.8611 0.0005 0.9990
vt 0.8611 0.9995 0.9990
vt 0.9167 0.0005 0.9990
vt 0.9167 0.9995 0.9990
vt 0.9722 0.0005 0.9990
vt 0.9722 0.9995 0.9990
vt 1.0278 0.0005 0.9990
vt 1.0278 0.9995 0.9990
vt 0.0278 0.0005 0.9990
vt 0.0833 0.0005 0.9990
vt 0.0833 0.9995 0.9990
vt 0.0278 0.9995 0.9990
vt 0.1389 0.0005 0.9990
vt 0.1389 0.9995 0.9990
vt 0.1944 0.0005 0.9990
vt 0.1944 0.9995 0.9990
vt 0.2500 0.0005 0.9990
vt 0.2500 0.9995 0.9990
vt 0.3056 0.0005 0.9990
vt 0.3056 0.9995 0.9990
vt 0.3611 0.0005 0.9990
vt 0.3611 0.9995 0.9990
vt 0.4167 0.0005 0.9990
vt 0.4167 0.9995 0.9990
vt 0.4722 0.0005 0.9990
vt 0.4722 0.9995 0.9990
vt 0.5278 0.0005 0.9990
vt 0.5278 0.9995 0.9990
vt 0.5833 0.0005 0.9990
vt 0.5833 0.9995 0.9990
vt 0.6389 0.0005 0.9990
vt 0.6389 0.9995 0.9990
vt 0.6944 0.0005 0.9990
vt 0.6944 0.9995 0.9990
vt 0.7500 0.9995 0.9990
vt 0.8056 0.9995 0.9990
vt 0.8056 0.9995 0.8888
vt 0.7500 0.9995 0.8888
vt 0.8611 0.9995 0.9990
vt 0.8611 0.9995 0.8888
vt 0.9167 0.9995 0.9990
vt 0.9167 0.9995 0.8888
vt 0.9722 0.9995 0.9990
vt 0.9722 0.9995 0.8888
vt 1.0278 0.9995 0.9990
vt 1.0278 0.9995 0.8888
vt 0.0278 0.9995 0.9990
vt 0.0833 0.9995 0.9990
vt 0.0833 0.9995 0.8888
vt 0.0278 0.9995 0.8888
vt 0.1389 0.9995 0.9990
vt 0.1389 0.9995 0.8888
vt 0.1944 0.9995 0.9990
vt 0.1944 0.9995 0.8888
vt 0.2500 0.9995 0.9990
vt 0.2500 0.9995 0.8888
vt 0.3056 0.9995 0.9990
vt 0.3056 0.9995 0.8888
vt 0.3611 0.9995 0.9990
vt 0.3611 0.9995 0.8888
vt 0.4167 0.9995 0.9990
vt 0.4167 0.9995 0.8888
vt 0.4722 0.9995 0.9990
vt 0.4722 0.9995 0.8888
vt 0.5278 0.9995 0.9990
vt 0.5278 0.9995 0.8888
vt 0.5833 0.9995 0.9990
vt 0.5833 0.9995 0.8888
vt 0.6389 0.9995 0.9990
vt 0.6389 0.9995 0.8888
vt 0.6944 0.9995 0.9990
vt 0.6944 0.9995 0.8888
vt 0.7500 0.9995 0.8888
vt 0.8056 0.9995 0.8888
vt 0.8056 0.5141 0.8888
vt 0.7500 0.5141 0.8888
vt 0.8056 0.9995 0.8888
vt 0.8611 0.9995 0.8888
vt 0.8611 0.5141 0.8888
vt 0.8056 0.5141 0.8888
vt 0.8611 0.9995 0.8888
vt 0.9167 0.9995 0.8888
vt 0.9167 0.5141 0.8888
vt 0.8611 0.5141 0.8888
vt 0.9167 0.9995 0.8888
vt 0.9722 0.9995 0.8888
vt 0.9722 0.5141 0.8888
vt 0.9167 0.5141 0.8888
vt 0.9722 0.9995 0.8888
vt 1.0278 0.9995 0.8888
vt 1.0278 0.5141 0.8888
vt 0.9722 0.5141 0.8888
vt 0.0278 0.9995 0.8888
vt 0.0833 0.9995 0.8888
vt 0.0833 0.5141 0.8888
vt 0.0278 0.5141 0.8888
vt 0.0833 0.9995 0.8888
vt 0.1389 0.9995 0.8888
vt 0.1389 0.5141 0.8888
vt 0.0833 0.5141 0.8888
vt 0.1389 0.9995 0.8888
vt 0.1944 0.9995 0.8888
vt 0.1944 0.5141 0.8888
vt 0.1389 0.5141 0.8888
vt 0.1944 0.9995 0.8888
vt 0.2500 0.9995 0.8888
vt 0.2500 0.5141 0.8888
vt 0.1944 0.5141 0.8888
vt 0.2500 0.9995 0.8888
vt 0.3056 0.9995 0.8888
vt 0.3056 0.5141 0.8888
vt 0.2500 0.5141 0.8888
vt 0.3056 0.9995 0.8888
vt 0.3611 0.9995 0.8888
vt 0.3611 0.5141 0.8888
vt 0.3056 0.5141 0.8888
vt 0.3611 0.9995 0.8888
vt 0.4167 0.9995 0.8888
vt 0.4167 0.5141 0.8888
vt 0.3611 0.5141 0.8888
vt 0.4167 0.9995 0.8888
vt 0.4722 0.9995 0.8888
vt 0.4722 0.5141 0.8888
vt 0.4167 0.5141 0.8888
vt 0.4722 0.9995 0.8888
vt 0.5278 0.9995 0.8888
vt 0.5278 0.5141 0.8888
vt 0.4722 0.5141 0.8888
vt 0.5278 0.9995 0.8888
vt 0.5833 0.9995 0.8888
vt 0.5833 0.5141 0.8888
vt 0.5278 0.5141 0.8888
vt 0.5833 0.9995 0.8888
vt 0.6389 0.9995 0.8888
vt 0.6389 0.5141 0.8888
vt 0.5833 0.5141 0.8888
vt 0.6389 0.9995 0.8888
vt 0.6944 0.9995 0.8888
vt 0.6944 0.5141 0.8888
vt 0.6389 0.5141 0.8888
vt 0.6944 0.9995 0.8888
vt 0.7500 0.9995 0.8888
vt 0.7500 0.5141 0.8888
vt 0.6944 0.5141 0.8888
vt 0.6944 0.0005 0.9990
vt 0.6389 0.0005 0.9990
vt 0.5000 0.0005 0.0000
vt 0.5833 0.0005 0.9990
vt 0.5278 0.0005 0.9990
vt 0.4722 0.0005 0.9990
vt 0.4167 0.0005 0.9990
vt 0.3611 0.0005 0.9990
vt 0.3056 0.0005 0.9990
vt 0.2500 0.0005 0.9990
vt 0.1944 0.0005 0.9990
vt 0.1389 0.0005 0.9990
vt 0.0833 0.0005 0.9990
vt 0.0278 0.0005 0.9990
vt -0.9722 0.0005 0.9990
vt -0.0278 0.0005 0.9990
vt -0.5000 0.0005 0.0000
vt 0.9722 0.0005 0.9990
vt 0.9167 0.0005 0.9990
vt 0.8611 0.0005 0.9990
vt 0.8056 0.0005 0.9990
vt 0.7500 0.0005 0.9990
vt 0.7500 0.5141 0.8888
vt 0.8056 0.5141 0.8888
vt 0.5000 0.5141 0.0000
vt 0.8611 0.5141 0.8888
vt 0.9167 0.5141 0.8888
vt 0.9722 0.5141 0.8888
vt 1.9722 0.5141 0.8888
vt 1.0278 0.5141 0.8888
vt 1.5000 0.5141 0.0000
vt 0.0278 0.5141 0.8888
vt 0.0833 0.5141 0.8888
vt 0.1389 0.5141 0.8888
vt 0.1944 0.5141 0.8888
vt 0.2500 0.5141 0.8888
vt 0.3056 0.5141 0.8888
vt 0.3611 0.5141 0.8888
vt 0.4167 0.5141 0.8888
vt 0.4722 0.5141 0.8888
vt 0.5278 0.5141 0.8888
vt 0.5833 0.5141 0.8888
vt 0.6389 0.5141 0.8888
vt 0.6944 0.5141 0.8888
# 192 texture coords

f 1/1/1 2/2/2 3/3/3
f 3/3/3 4/4/4 1/1/1
f 2/2/2 5/5/5 6/6/6
f 6/6/6 3/3/3 2/2/2
f 5/5/5 7/7/7 8/8/8
f 8/8/8 6/6/6 5/5/5
f 7/7/7 9/9/9 10/10/10
f 10/10/10 8/8/8 7/7/7
f 9/9/9 11/11/11 12/12/12
f 12/12/12 10/10/10 9/9/9
f 13/13/13 14/14/14 15/15/15
f 15/15/15 16/16/16 13/13/13
f 14/14/14 17/17/17 18/18/18
f 18/18/18 15/15/15 14/14/14
f 17/17/17 19/19/19 20/20/20
f 20/20/20 18/18/18 17/17/17
f 19/19/19 21/21/21 22/22/22
f 22/22/22 20/20/20 19/19/19
f 21/21/21 23/23/23 24/24/24
f 24/24/24 22/22/22 21/21/21
f 23/23/23 25/25/25 26/26/26
f 26/26/26 24/24/24 23/23/23
f 25/25/25 27/27/27 28/28/28
f 28/28/28 26/26/26 25/25/25
f 27/27/27 29/29/29 30/30/30
f 30/30/30 28/28/28 27/27/27
f 29/29/29 31/31/31 32/32/32
f 32/32/32 30/30/30 29/29/29
f 31/31/31 33/33/33 34/34/34
f 34/34/34 32/32/32 31/31/31
f 33/33/33 35/35/35 36/36/36
f 36/36/36 34/34/34 33/33/33
f 35/35/35 37/37/37 38/38/38
f 38/38/38 36/36/36 35/35/35
f 37/37/37 1/1/1 4/4/4
f 4/4/4 38/38/38 37/37/37
f 39/39/39 40/40/40 41/41/41
f 41/41/41 42/42/42 39/39/39
f 40/40/40 43/43/43 44/44/44
f 44/44/44 41/41/41 40/40/40
f 43/43/43 45/45/45 46/46/46
f 46/46/46 44/44/44 43/43/43
f 45/45/45 47/47/47 48/48/48
f 48/48/48 46/46/46 45/45/45
f 47/47/47 49/49/49 50/50/50
f 50/50/50 48/48/48 47/47/47
f 51/51/51 52/52/52 53/53/53
f 53/53/53 54/54/54 51/51/51
f 52/52/52 55/55/55 56/56/56
f 56/56/56 53/53/53 52/52/52
f 55/55/55 57/57/57 58/58/58
f 58/58/58 56/56/56 55/55/55
f 57/57/57 59/59/59 60/60/60
f 60/60/60 58/58/58 57/57/57
f 59/59/59 61/61/61 62/62/62
f 62/62/62 60/60/60 59/59/59
f 61/61/61 63/63/63 64/64/64
f 64/64/64 62/62/62 61/61/61
f 63/63/63 65/65/65 66/66/66
f 66/66/66 64/64/64 63/63/63
f 65/65/65 67/67/67 68/68/68
f 68/68/68 66/66/66 65/65/65
f 67/67/67 69/69/69 70/70/70
f 70/70/70 68/68/68 67/67/67
f 69/69/69 71/71/71 72/72/72
f 72/72/72 70/70/70 69/69/69
f 71/71/71 73/73/73 74/74/74
f 74/74/74 72/72/72 71/71/71
f 73/73/73 75/75/75 76/76/76
f 76/76/76 74/74/74 73/73/73
f 75/75/75 39/39/39 42/42/42
f 42/42/42 76/76/76 75/75/75
f 77/77/77 78/78/78 79/79/79
f 79/79/79 80/80/80 77/77/77
f 81/81/81 82/82/82 83/83/83
f 83/83/83 84/84/84 81/81/81
f 85/85/85 86/86/86 87/87/87
f 87/87/87 88/88/88 85/85/85
f 89/89/89 90/90/90 91/91/91
f 91/91/91 92/92/92 89/89/89
f 93/93/93 94/94/94 95/95/95
f 95/95/95 96/96/96 93/93/93
f 97/97/97 98/98/98 99/99/99
f 99/99/99 100/100/100 97/97/97
f 101/101/101 102/102/102 103/103/103
f 103/103/103 104/104/104 101/101/101
f 105/105/105 106/106/106 107/107/107
f 107/107/107 108/108/108 105/105/105
f 109/109/109 110/110/110 111/111/111
f 111/111/111 112/112/112 109/109/109
f 113/113/113 114/114/114 115/115/115
f 115/115/115 116/116/116 113/113/113
f 117/117/117 118/118/118 119/119/119
f 119/119/119 120/120/120 117/117/117
f 121/121/121 122/122/122 123/123/123
f 123/123/123 124/124/124 121/121/121
f 125/125/125 126/126/126 127/127/127
f 127/127/127 128/128/128 125/125/125
f 129/129/129 130/130/130 131/131/131
f 131/131/131 132/132/132 129/129/129
f 133/133/133 134/134/134 135/135/135
f 135/135/135 136/136/136 133/133/133
f 137/137/137 138/138/138 139/139/139
f 139/139/139 140/140/140 137/137/137
f 141/141/141 142/142/142 143/143/143
f 143/143/143 144/144/144 141/141/141
f 145/145/145 146/146/146 147/147/147
f 147/147/147 148/148/148 145/145/145
f 149/149/149 150/150/150 151/151/151
f 150/150/150 152/152/152 151/151/151
f 152/152/152 153/153/153 151/151/151
f 153/153/153 154/154/154 151/151/151
f 154/154/154 155/155/155 151/151/151
f 155/155/155 156/156/156 151/151/151
f 156/156/156 157/157/157 151/151/151
f 157/157/157 158/158/158 151/151/151
f 158/158/158 159/159/159 151/151/151
f 159/159/159 160/160/160 151/151/151
f 160/160/160 161/161/161 151/151/151
f 161/161/161 162/162/162 151/151/151
f 163/163/163 164/164/164 165/165/165
f 166/166/166 167/167/167 151/151/151
f 167/167/167 168/168/168 151/151/151
f 168/168/168 169/169/169 151/151/151
f 169/169/169 170/170/170 151/151/151
f 170/170/170 149/149/149 151/151/151
f 171/171/171 172/172/172 173/173/173
f 172/172/172 174/174/174 173/173/173
f 174/174/174 175/175/175 173/173/173
f 175/175/175 176/176/176 173/173/173
f 177/177/177 178/178/178 179/179/179
f 180/180/180 181/181/181 173/173/173
f 181/181/181 182/182/182 173/173/173
f 182/182/182 183/183/183 173/173/173
f 183/183/183 184/184/184 173/173/173
f 184/184/184 185/185/185 173/173/173
f 185/185/185 186/186/186 173/173/173
f 186/186/186 187/187/187 173/173/173
f 187/187/187 188/188/188 173/173/173
f 188/188/188 189/189/189 173/173/173
f 189/189/189 190/190/190 173/173/173
f 190/190/190 191/191/191 173/173/173
f 191/191/191 192/192/192 173/173/173
f 192/192/192 171/171/171 173/173/173
# 144 faces